<?xml version="1.0" encoding="UTF-8"?>
<svg id="Layer_1" data-name="Layer 1" xmlns="http://www.w3.org/2000/svg" xmlns:xlink="http://www.w3.org/1999/xlink" viewBox="0 0 1818.98 1561.3">
  <defs>
    <style>
      .cls-1 {
        fill: #17212a;
      }

      .cls-2 {
        fill: url(#linear-gradient-7);
      }

      .cls-3 {
        fill: url(#linear-gradient-5);
      }

      .cls-4 {
        fill: url(#linear-gradient-6);
      }

      .cls-5 {
        fill: url(#linear-gradient-4);
      }

      .cls-6 {
        fill: url(#linear-gradient-3);
      }

      .cls-7 {
        fill: url(#linear-gradient-2);
      }

      .cls-8 {
        fill: #78302d;
      }

      .cls-9 {
        fill: url(#linear-gradient);
      }
    </style>
    <linearGradient id="linear-gradient" x1="365.54" y1="777.84" x2="1715.57" y2="777.84" gradientUnits="userSpaceOnUse">
      <stop offset="0" stop-color="#f8eed1"/>
      <stop offset="0" stop-color="#f7ecd0"/>
      <stop offset=".09" stop-color="#e9dac2"/>
      <stop offset=".18" stop-color="#e0ceba"/>
      <stop offset=".28" stop-color="#decbb8"/>
      <stop offset=".67" stop-color="#d49e6f"/>
      <stop offset=".89" stop-color="#bf8361"/>
      <stop offset="1" stop-color="#ab6f69"/>
    </linearGradient>
    <linearGradient id="linear-gradient-2" x1="1530.75" y1="618.54" x2="1587.83" y2="618.54" xlink:href="#linear-gradient"/>
    <linearGradient id="linear-gradient-3" x1="852.53" y1="332.77" x2="1087.7" y2="332.77" xlink:href="#linear-gradient"/>
    <linearGradient id="linear-gradient-4" x1="1191.66" y1="473.3" x2="1233.35" y2="473.3" xlink:href="#linear-gradient"/>
    <linearGradient id="linear-gradient-5" x1="1448.88" y1="1122.84" x2="1500.43" y2="1122.84" xlink:href="#linear-gradient"/>
    <linearGradient id="linear-gradient-6" x1="663.21" y1="784.07" x2="722.34" y2="784.07" xlink:href="#linear-gradient"/>
    <linearGradient id="linear-gradient-7" x1="1171.64" y1="489.99" x2="1194.89" y2="489.99" xlink:href="#linear-gradient"/>
  </defs>
  <g id="Pa3Foa.tif">
    <g>
      <path class="cls-1" d="M1818.92,762.14c.08,6.82.08,13.73,0,20.54-4.74,427.66-367.47,792.93-800.16,778.18-416.02-14.18-621.44-324.93-867.95-606.17-44.07-50.28-100.18-103.38-139.95-155.38-21.09-27.58-8.07-39.16,10.28-61.5,45.95-55.96,97.47-108.43,145.08-163.09C372.88,337.47,536.08,89.38,865.58,18.27c481.12-103.83,947.83,247.16,953.34,743.88ZM1715.57,777.84c0-372.73-302.21-674.88-675.02-674.88S365.54,405.11,365.54,777.84c0,372.73,302.21,674.88,675.02,674.88s675.02-302.16,675.02-674.88Z"/>
      <g>
        <path class="cls-9" d="M1715.57,777.84c0,372.73-302.21,674.88-675.02,674.88s-675.02-302.16-675.02-674.88c0-372.73,302.21-674.88,675.02-674.88s675.02,302.16,675.02,674.88ZM1456.77,389.79c4.75-4.27-31.78-38.6-35.91-42.39-150.81-138.75-379.84-186.77-573.41-116.15-51.06,18.63-126.71,58.51-166.35,95.61-2.15,2.01-15.77,14.22-12.79,16.71,27.28,4.16,46.85-16.75,70.36-25.47,7.25,1.63,5.72,21.32,12.95,20.34,26.15-3.55,47.34-50.69,74.34-48.69,42.94,3.18,67.61,81.63,19.08,95.8-28.2,8.23-23.09-40.51-45.78-35.76-5.15,1.08-58.86,39.14-65.52,45.09-45.83,40.88,3.86,93.89,38.63,56.6,9.8-10.51,21.08-46.14,28.73-48.43,10.88-3.26,18.15,6.64,27.23,10.36,11.86,4.85,25.17,4.07,32,16.8,4.65,8.67,5.97,22.23,9.64,31.45,6.16,15.49,34.79,58.65.03,56.65-10.6-.61-19.36-8.19-28.94-9.76-17.3-2.84-39.09,4.51-46.9,21.18,1.36,6.5,25.23.92,32.77,16.16,8.36,16.88-19.68,13.97-32.27,17.77-43.73,13.22-90.35,76.15-101.98,118.87-2.5,9.18-6.19,44.31-11.46,47.6-9.09,5.68-13.33-22.7-15.75-28.06-9.02-19.96-32.13-32.71-52.4-19.54-22.52,14.63-46.63,73.54-21.67,93.61,17.38,13.97,37.05-12.5,44.98-1.31,6.36,8.97-7.47,21.01-6.62,29.55.56,5.63,12.85,20.43,15.92,27.91,6.26,15.24,4.77,41.46,24.55,44.87,22.59,3.89,53.58-21.92,91.16-16.76,57.03,7.83,76.72,39.91,113.61,73.86,31.74,29.21,82.2,24.33,110.89,57.32,29.63,34.07-5.13,61.75-18.33,91.6-8.55,19.34-11.3,48.58-22.29,65.02-13.01,19.49-41.2,15.59-54.06,40.97-5.23,10.32-5.4,25.16-11.22,35-11.09,18.74-32.71,18.11-26.18,49.7,2.22,10.76,31.96,40.14,6.55,37.27-88.81-10.02-79.38-125.82-101.71-183.53-21.52-55.62-91.43-91.76-85.22-151.07,2.52-24.11,22.14-41.62,10.91-69.94-4.74-11.96-26.58-16.4-36.33-25.31-8.47-7.74-16.07-23.53-24.55-31.94-29.93-29.69-48.59-32.26-70.37-76.01-36.51-73.34-42.37-150.43-7.71-225.25,10.87-23.47,54.56-83.33,53.73-103.03-.46-10.84-4.96-16.08-15.78-13.13-17.94,4.89-67.48,108.98-75.51,129.96-79.81,208.6-40.7,439.78,107.79,606.01,314.85,352.44,886.68,194.12,983.74-264.5,8.78-41.47,20.12-119.77,10.98-159.97-3.21-14.12-13.5-10.47-23.47-15.06s-16.38-15.22-26.1-20.03c-25.31,34.79,32.75,44.82,32.21,75.5-.39,21.95-13.43,44.06-32.08,55.43-13.33,8.13-18.2,10.35-25.81-5.2-8.43-17.25-22.38-96.61-41.43-99.95-14.26-2.5-6.18,28.79-4.8,35.76,5.23,26.38,17.99,79.04,33.59,99.95,10.38,13.92,26.75,14.09,27.01,34.84.38,30.27-43.3,60.39-57.16,89.42-11.75,24.61-10.41,51.81-20.72,76.87-12.62,30.67-77.41,117-103.33,138.07-16.26,13.22-62.3,41.26-68.29,6.3,7.12-30.05,8.3-61.4,13.81-91.59,10.54-57.74,34.03-104.65,9.13-164.82-30.06-72.66-104.78-9.07-156.17-44.15-40.4-27.58-47.34-77.04-37.41-121.81,16.67-75.17,125.03-196.04,202.83-125.75,7.46,6.74,11.69,16.09,19.51,21.58,26.49,18.59,40.23-2.34,65.35-1.27,15.28.65,31.69,13.54,46,12.84,20.08-.98,36.27-28.62,20.87-43.61-13.12-12.76-73.1-8.89-61.9-43.67,8.88-27.57,55.37.18,60.21-14.35.21-17.8-19.1-51.64-37.65-54.35-33.67-4.92-36.31,42.24-46.37,62.88-2.95,6.06-7,16.71-14.59,8.51-11.66-17.26-43.84-75.53-65.58-47.58,8.42,18.96,30.48,29,32.95,51.09-2.53,5.95-10.11,10.36-14.28,3.03,10.34-16.16-30.17-41.43-42.98-42.6-42.56-3.89-47.32,65.61-89.58,61.62-12.3-1.16-26.53-14.4-27.44-26.87-2.18-29.82,30.6-21.84,49.04-28.12,29.12-9.91-12.89-50.46-7.72-57.76,29.04-3.56,42.78-36.53,65.33-48.98,15.68-8.66,34.66-7.76,49.53-19.81,20.88-16.92,19.11-55.94-8.95-61.7-30.88-6.34-4.51,24.95-18.55,39.34-15.57,15.95-48.22-4.15-49.07-23.26-.19-4.22,14.86-48.87,17.59-54.44,12.97-26.48,43.73-17.37,64.48-6.86,12.84,6.5,29.63,23.15,43.23,26.11,11.53,2.51,28.3,1.44,40.32,3.34,11.24,1.78,22.56,9.08,34.87,7.48ZM1538.21,562.19c-11.65,6.13-6.96,21.05-3.79,31.18,3.4,10.85,26.98,60.19,33.24,69.48,12,17.81,22.21,16.86,19.83-7-1.52-15.24-24.77-74.78-34.5-86.18-3.41-3.99-9.16-8.85-14.77-7.48Z"/>
        <path class="cls-8" d="M1456.77,389.79c-12.31,1.6-23.63-5.7-34.87-7.48-12.02-1.9-28.78-.84-40.32-3.34-13.61-2.96-30.4-19.61-43.23-26.11-20.75-10.51-51.51-19.62-64.48,6.86-2.73,5.57-17.77,50.22-17.59,54.44.85,19.11,33.5,39.22,49.07,23.26,14.05-14.39-12.33-45.68,18.55-39.34,28.06,5.77,29.83,44.78,8.95,61.7-14.87,12.05-33.85,11.15-49.53,19.81-22.55,12.45-36.3,45.42-65.33,48.98-5.16,7.3,36.85,47.86,7.72,57.76-18.45,6.27-51.22-1.7-49.04,28.12.91,12.47,15.14,25.71,27.44,26.87,42.26,4,47.02-65.51,89.58-61.62,12.81,1.17,53.32,26.44,42.98,42.6,4.16,7.33,11.74,2.92,14.28-3.03-2.47-22.09-24.53-32.13-32.95-51.09,21.74-27.95,53.92,30.32,65.58,47.58,7.6,8.2,11.64-2.45,14.59-8.51,10.06-20.64,12.7-67.8,46.37-62.88,18.55,2.71,37.86,36.54,37.65,54.35-4.85,14.52-51.33-13.23-60.21,14.35-11.2,34.78,48.78,30.91,61.9,43.67,15.41,14.99-.79,42.63-20.87,43.61-14.31.7-30.72-12.19-46-12.84-25.12-1.06-38.86,19.86-65.35,1.27-7.82-5.49-12.05-14.83-19.51-21.58-77.8-70.29-186.16,50.58-202.83,125.75-9.93,44.77-2.98,94.24,37.41,121.81,51.4,35.08,126.11-28.51,156.17,44.15,24.9,60.17,1.4,107.09-9.13,164.82-5.51,30.19-6.69,61.53-13.81,91.59,5.99,34.96,52.02,6.92,68.29-6.3,25.92-21.07,90.71-107.4,103.33-138.07,10.31-25.06,8.96-52.26,20.72-76.87,13.87-29.03,57.54-59.16,57.16-89.42-.26-20.75-16.63-20.92-27.01-34.84-15.59-20.91-28.35-73.57-33.59-99.95-1.38-6.97-9.45-38.26,4.8-35.76,19.05,3.34,33,82.7,41.43,99.95,7.6,15.55,12.47,13.33,25.81,5.2,18.65-11.37,31.68-33.48,32.08-55.43.55-30.68-57.52-40.71-32.21-75.5,9.73,4.82,16.32,15.53,26.1,20.03s20.26.94,23.47,15.06c9.13,40.2-2.21,118.5-10.98,159.97-97.06,458.61-668.89,616.93-983.74,264.5-148.5-166.22-187.6-397.41-107.79-606.01,8.03-20.98,57.57-125.07,75.51-129.96,10.82-2.95,15.32,2.29,15.78,13.13.84,19.69-42.86,79.56-53.73,103.03-34.66,74.81-28.8,151.9,7.71,225.25,21.78,43.75,40.44,46.33,70.37,76.01,8.48,8.41,16.08,24.2,24.55,31.94,9.75,8.91,31.59,13.34,36.33,25.31,11.23,28.32-8.39,45.83-10.91,69.94-6.2,59.3,63.71,95.45,85.22,151.07,22.33,57.71,12.9,173.51,101.71,183.53,25.42,2.87-4.32-26.51-6.55-37.27-6.53-31.59,15.09-30.95,26.18-49.7,5.82-9.84,5.99-24.68,11.22-35,12.86-25.38,41.04-21.48,54.06-40.97,10.98-16.45,13.74-45.68,22.29-65.02,13.2-29.85,47.96-57.53,18.33-91.6-28.69-32.99-79.15-28.1-110.89-57.32-36.89-33.96-56.58-66.03-113.61-73.86-37.58-5.16-68.57,20.64-91.16,16.76-19.78-3.4-18.29-29.63-24.55-44.87-3.07-7.48-15.37-22.27-15.92-27.91-.85-8.54,12.98-20.57,6.62-29.55-7.93-11.19-27.6,15.28-44.98,1.31-24.96-20.07-.85-78.98,21.67-93.61,20.28-13.17,43.39-.42,52.4,19.54,2.42,5.35,6.66,33.74,15.75,28.06,5.27-3.3,8.96-38.42,11.46-47.6,11.63-42.72,58.25-105.66,101.98-118.87,12.58-3.8,40.62-.89,32.27-17.77-7.54-15.24-31.41-9.66-32.77-16.16,7.8-16.67,29.6-24.02,46.9-21.18,9.58,1.57,18.33,9.15,28.94,9.76,34.76,2.01,6.13-41.15-.03-56.65-3.67-9.22-4.99-22.77-9.64-31.45-6.83-12.73-20.14-11.94-32-16.8-9.08-3.72-16.36-13.61-27.23-10.36-7.65,2.29-18.93,37.92-28.73,48.43-34.77,37.29-84.46-15.72-38.63-56.6,6.67-5.95,60.38-44.01,65.52-45.09,22.69-4.74,17.58,43.99,45.78,35.76,48.54-14.17,23.87-92.62-19.08-95.8-27-2-48.18,45.14-74.34,48.69-7.24.98-5.71-18.71-12.95-20.34-23.5,8.72-43.07,29.62-70.36,25.47-2.97-2.5,10.64-14.7,12.79-16.71,39.63-37.1,115.28-76.98,166.35-95.61,193.58-70.62,422.6-22.6,573.41,116.15,4.13,3.8,40.66,38.12,35.91,42.39ZM1086.94,281.94c5.74-6.19-22.97-17.55-26.24-18.68-50.47-17.47-151.46-21.54-199.79,2-7.29,3.55-13.89,8.1-1.31,9,25,1.78,50.04-3.25,66.65,20.71,22.27,32.12-3.39,53.44,2.07,85.25.93,5.44,10.18,26.27,13.64,30.02,20.53,22.23,37.23-19.22,48.59-30.78,10.99-11.18,30.67-20.82,39.94-31.97,18.55-22.32,14.62-63.43,56.46-65.55ZM1232.85,497.17c4.59-7.82-23.47-65.49-38.17-54.91-9.92,7.14,7.55,32.94,10.9,40.78,7.52,17.59,1.78,32.57,27.27,14.13ZM1181.22,477.4c-12.04,3.06-14.1,26.28,1.79,25.4,20.76-1.14,10.47-28.52-1.79-25.4ZM669.89,765.33c-2.86.6-4.61,4.01-6.69,5.8-.05,4.41,44.42,30.73,50.61,31.65,3.35.5,7.74-.23,8.42-3.46,2.48-11.69-42.87-35.97-52.35-33.99ZM1500.43,1083.14c-4.82-1-6.2,2.4-8.77,5.33-5.8,6.62-46,70.73-42.57,74.25,28.69-12.93,48.73-48.9,51.34-79.58Z"/>
        <path class="cls-7" d="M1538.21,562.19c5.61-1.37,11.37,3.49,14.77,7.48,9.73,11.4,32.99,70.94,34.5,86.18,2.38,23.86-7.83,24.81-19.83,7-6.26-9.29-29.84-58.63-33.24-69.48-3.17-10.12-7.85-25.04,3.79-31.18Z"/>
        <path class="cls-6" d="M1086.94,281.94c-41.83,2.12-37.9,43.22-56.46,65.55-9.27,11.15-28.95,20.79-39.94,31.97-11.36,11.56-28.06,53.01-48.59,30.78-3.46-3.75-12.7-24.58-13.64-30.02-5.46-31.81,20.2-53.12-2.07-85.25-16.61-23.96-41.65-18.93-66.65-20.71-12.58-.9-5.98-5.45,1.31-9,48.33-23.54,149.32-19.47,199.79-2,3.28,1.13,31.99,12.49,26.24,18.68Z"/>
        <path class="cls-5" d="M1232.85,497.17c-25.49,18.44-19.75,3.46-27.27-14.13-3.35-7.84-20.82-33.64-10.9-40.78,14.7-10.58,42.76,47.09,38.17,54.91Z"/>
        <path class="cls-3" d="M1500.43,1083.14c-2.61,30.67-22.65,66.65-51.34,79.58-3.43-3.52,36.77-67.63,42.57-74.25,2.57-2.93,3.96-6.33,8.77-5.33Z"/>
        <path class="cls-4" d="M669.89,765.33c9.47-1.98,54.82,22.3,52.35,33.99-.68,3.23-5.08,3.96-8.42,3.46-6.19-.93-50.66-27.24-50.61-31.65,2.07-1.79,3.82-5.2,6.69-5.8Z"/>
        <path class="cls-2" d="M1181.22,477.4c12.27-3.12,22.55,24.26,1.79,25.4-15.89.87-13.83-22.34-1.79-25.4Z"/>
      </g>
    </g>
  </g>
</svg>